<?xml version="1.0"?>
<!-- Converted with SVG Converter - Version 0.9.5 (Compiled Mon May 30 09:08:51 2011) - Copyright (C) 2011 Nokia -->
<svg xmlns="http://www.w3.org/2000/svg" width="96px" x="0px" version="1.1" y="0px" height="96px" viewBox="0 0 96 96" xmlns:xlink="http://www.w3.org/1999/xlink" baseProfile="tiny" xml:space="preserve">
 <g id="DO_NOT_EDIT_-_BOUNDING_BOX">
  <rect width="96" fill="none" height="96" id="BOUNDING_BOX"/>
 </g>
 <g id="DO_NOT_EDIT_-_SHADOW">
  <path stroke-opacity="0.4" fill-opacity="0.4" id="SHADOW" d="M88.023,49c0,29.633-10.364,40-40,40c-29.635,0-40-10.367-40-40c0-29.634,10.366-40,40-40&#xd;&#xa;&#x9;&#x9;C77.659,9,88.023,19.365,88.023,49z"/>
 </g>
 <g id="BLUE_BACKGROUNDS">
  <g id="BLUE_1_1_">
   <linearGradient id="BLUE_1_3_" y1="8.0107" x1="47.9995" y2="87.9897" gradientUnits="userSpaceOnUse" x2="47.9995">
    <stop offset="0" style="stop-color:#9BDEF6"/>
    <stop offset="0.2" style="stop-color:#70D3F6"/>
    <stop offset="0.3548" style="stop-color:#66CEF3"/>
    <stop offset="0.6166" style="stop-color:#4CC0EA"/>
    <stop offset="0.9514" style="stop-color:#21AADB"/>
    <stop offset="1" style="stop-color:#1AA6D9"/>
   </linearGradient>
   <path fill="url(#BLUE_1_3_)" id="BLUE_1_2_" d="M8,47.989c0,29.633,10.365,40,40,40c29.637,0,40-10.367,40-40&#xd;&#xa;&#x9;&#x9;&#x9;c0-28.985-9.926-39.53-38.091-39.979h-3.817C17.928,8.459,8,19.004,8,47.989z"/>
   <linearGradient id="HIGHLIGHT_BLU1_1_" y1="8.2559" x1="47.9995" y2="87.5043" gradientUnits="userSpaceOnUse" x2="47.9995">
    <stop offset="0.0364" style="stop-color:#FFFDF2"/>
    <stop offset="0.1064" style="stop-color:#F5F8F0"/>
    <stop offset="0.2248" style="stop-color:#DBEBE9"/>
    <stop offset="0.3771" style="stop-color:#AFD5DF"/>
    <stop offset="0.5394" style="stop-color:#7ABAD2"/>
    <stop offset="1" style="stop-color:#00879A"/>
   </linearGradient>
   <path stroke-opacity="0.25" fill="url(#HIGHLIGHT_BLU1_1_)" fill-opacity="0.25" id="HIGHLIGHT_BLU1" d="M48,8C18.365,8,8,18.365,8,48&#xd;&#xa;&#x9;&#x9;&#x9;c0,29.633,10.365,40,40,40c29.637,0,40-10.367,40-40C88,18.365,77.637,8,48,8z M48,87.023C18.842,87.023,9,77.176,9,48&#xd;&#xa;&#x9;&#x9;&#x9;S18.842,8.977,48,8.977S87,18.824,87,48S77.158,87.023,48,87.023z"/>
  </g>
 </g>
 <g id="PLACE_YOUR_GRAPHIC_HERE">
  <path stroke-opacity="0.05" fill-opacity="0.05" d="M69.322,55.758c0.015-0.238,0.022-0.478,0.022-0.715c0-4.267-2.4-8.132-6.17-10.029&#xd;&#xa;&#x9;&#x9;c0.595-0.79,0.926-1.762,0.926-2.754c0-2.537-2.063-4.601-4.6-4.601h-3.023c-0.785,0-1.539,0.196-2.214,0.57&#xd;&#xa;&#x9;&#x9;c-0.221-0.69-0.499-1.36-0.832-2.004c0.74-0.213,1.411-0.61,1.968-1.169l2.139-2.137c0.87-0.87,1.349-2.025,1.348-3.254&#xd;&#xa;&#x9;&#x9;c-0.001-1.228-0.479-2.379-1.344-3.241c-0.868-0.871-2.024-1.351-3.255-1.351c-1.231,0-2.385,0.478-3.245,1.344l-2.153,2.144&#xd;&#xa;&#x9;&#x9;c-0.552,0.555-0.944,1.224-1.156,1.961c-0.647-0.334-1.32-0.614-2.013-0.835c0.375-0.675,0.57-1.428,0.57-2.214V24.45&#xd;&#xa;&#x9;&#x9;c0-2.535-2.061-4.597-4.595-4.597c-2.534,0-4.596,2.063-4.596,4.597v3.021c-0.001,0.79,0.193,1.545,0.564,2.219&#xd;&#xa;&#x9;&#x9;c-0.69,0.222-1.361,0.5-2.004,0.833c-0.212-0.74-0.608-1.411-1.164-1.969l-2.132-2.13c-0.868-0.874-2.024-1.354-3.257-1.354&#xd;&#xa;&#x9;&#x9;c-1.229,0-2.387,0.48-3.261,1.354c-1.784,1.792-1.781,4.704,0.005,6.491L28,35.062c0.557,0.553,1.225,0.946,1.96,1.158&#xd;&#xa;&#x9;&#x9;c-0.334,0.646-0.613,1.318-0.834,2.01c-0.675-0.375-1.429-0.571-2.214-0.571h-3.02c-2.536,0-4.599,2.063-4.599,4.597&#xd;&#xa;&#x9;&#x9;c0,2.533,2.063,4.594,4.599,4.594h3.023c0.776,0,1.543-0.202,2.22-0.576c0.224,0.69,0.505,1.363,0.841,2.01&#xd;&#xa;&#x9;&#x9;c-0.746,0.211-1.423,0.609-1.985,1.171l-2.147,2.145c-1.777,1.787-1.774,4.702,0.01,6.5c0.868,0.862,2.021,1.338,3.25,1.338&#xd;&#xa;&#x9;&#x9;c1.229,0,2.384-0.477,3.251-1.343l2.14-2.141c0.558-0.559,0.953-1.232,1.164-1.976c0.135,0.07,0.271,0.137,0.405,0.2&#xd;&#xa;&#x9;&#x9;c0.217,0.105,0.451,0.18,0.691,0.218c-0.062,0.421-0.093,0.848-0.093,1.273c0,0.09,0.001,0.18,0.004,0.269&#xd;&#xa;&#x9;&#x9;c-2.813,1.778-4.547,4.92-4.547,8.272c0,5.394,4.39,9.781,9.786,9.781h22.462c5.396,0,9.786-4.388,9.786-9.781&#xd;&#xa;&#x9;&#x9;C74.154,60.771,72.268,57.49,69.322,55.758z M39.745,47.154c-2.019-0.808-3.323-2.731-3.323-4.899c0-2.911,2.366-5.278,5.274-5.278&#xd;&#xa;&#x9;&#x9;s5.274,2.368,5.274,5.278c0,1.176-0.384,2.294-1.11,3.233c-0.338,0.438-0.518,0.962-0.523,1.5c-1.551,0-3.055,0.411-4.382,1.192&#xd;&#xa;&#x9;&#x9;C40.678,47.722,40.258,47.361,39.745,47.154z"/>
  <path stroke-opacity="0.07" fill-opacity="0.07" d="M68.8,56.037c0.029-0.329,0.045-0.663,0.045-0.994c0-4.335-2.566-8.174-6.485-9.858&#xd;&#xa;&#x9;&#x9;c0.791-0.768,1.241-1.822,1.241-2.926c0-2.261-1.839-4.101-4.1-4.101h-3.023c-0.916,0-1.791,0.306-2.504,0.86&#xd;&#xa;&#x9;&#x9;c-0.291-1.105-0.728-2.158-1.306-3.146c0.898-0.113,1.729-0.519,2.378-1.171l2.139-2.137c0.775-0.775,1.202-1.805,1.201-2.9&#xd;&#xa;&#x9;&#x9;s-0.428-2.121-1.198-2.889c-0.773-0.776-1.803-1.204-2.9-1.204s-2.125,0.426-2.893,1.199l-2.151,2.142&#xd;&#xa;&#x9;&#x9;c-0.645,0.648-1.046,1.482-1.157,2.374c-0.99-0.58-2.046-1.019-3.155-1.31c0.554-0.713,0.859-1.589,0.859-2.505V24.45&#xd;&#xa;&#x9;&#x9;c0-2.259-1.837-4.097-4.095-4.097c-2.258,0-4.096,1.838-4.096,4.097v3.021c-0.001,0.92,0.299,1.794,0.853,2.509&#xd;&#xa;&#x9;&#x9;c-1.105,0.292-2.158,0.729-3.145,1.307c-0.112-0.893-0.516-1.729-1.165-2.38l-2.133-2.131c-0.773-0.778-1.804-1.207-2.902-1.207&#xd;&#xa;&#x9;&#x9;c-1.096,0-2.127,0.428-2.906,1.207c-1.589,1.597-1.588,4.192,0.004,5.785l2.148,2.147c0.651,0.646,1.479,1.048,2.373,1.161&#xd;&#xa;&#x9;&#x9;c-0.579,0.989-1.017,2.044-1.308,3.152c-0.714-0.555-1.589-0.861-2.504-0.861h-3.02c-2.26,0-4.099,1.838-4.099,4.097&#xd;&#xa;&#x9;&#x9;c0,2.257,1.839,4.094,4.099,4.094h3.023c0.917,0,1.795-0.308,2.509-0.864c0.295,1.104,0.737,2.16,1.32,3.153&#xd;&#xa;&#x9;&#x9;c-0.906,0.109-1.744,0.515-2.398,1.169L26.2,51.951c-1.584,1.593-1.582,4.19,0.008,5.793c0.773,0.769,1.802,1.192,2.897,1.192&#xd;&#xa;&#x9;&#x9;c1.096,0,2.125-0.425,2.898-1.196l2.14-2.14c0.651-0.653,1.054-1.491,1.163-2.388c0.32,0.187,0.647,0.359,0.979,0.516&#xd;&#xa;&#x9;&#x9;c0.268,0.131,0.567,0.199,0.868,0.199c0.067,0,0.133-0.003,0.199-0.01c-0.125,0.572-0.188,1.158-0.188,1.751&#xd;&#xa;&#x9;&#x9;c0,0.181,0.006,0.361,0.018,0.541c-2.822,1.661-4.561,4.696-4.561,8c0,5.118,4.166,9.281,9.286,9.281h22.462&#xd;&#xa;&#x9;&#x9;c5.12,0,9.286-4.163,9.286-9.281C73.654,60.811,71.76,57.641,68.8,56.037z M39.559,47.619c-2.209-0.885-3.637-2.99-3.637-5.363&#xd;&#xa;&#x9;&#x9;c0-3.186,2.59-5.778,5.774-5.778c3.184,0,5.774,2.592,5.774,5.778c0,1.288-0.42,2.512-1.214,3.539&#xd;&#xa;&#x9;&#x9;c-0.377,0.488-0.506,1.118-0.357,1.713c-0.186-0.012-0.372-0.019-0.559-0.019c-1.653,0-3.255,0.5-4.606,1.425&#xd;&#xa;&#x9;&#x9;C40.562,48.327,40.131,47.849,39.559,47.619z"/>
  <path stroke-opacity="0.1" fill-opacity="0.1" d="M68.266,56.324c0.053-0.424,0.079-0.853,0.079-1.281c0-4.563-3.002-8.437-7.135-9.753&#xd;&#xa;&#x9;&#x9;c0.242-0.054,0.47-0.168,0.661-0.334c0.781-0.682,1.229-1.665,1.229-2.696c0-1.986-1.615-3.601-3.6-3.601h-3.023&#xd;&#xa;&#x9;&#x9;c-1.115,0-2.13,0.523-2.796,1.341c-0.311-1.654-0.962-3.223-1.914-4.615c0.126,0.014,0.253,0.021,0.381,0.021&#xd;&#xa;&#x9;&#x9;c0.961,0,1.865-0.375,2.544-1.057l2.139-2.137c0.682-0.681,1.056-1.585,1.055-2.546c-0.001-0.961-0.375-1.862-1.053-2.536&#xd;&#xa;&#x9;&#x9;c-0.679-0.682-1.583-1.057-2.546-1.057c-0.964,0-1.866,0.375-2.54,1.053l-2.149,2.141c-0.789,0.792-1.133,1.876-1.023,2.923&#xd;&#xa;&#x9;&#x9;c-1.394-0.956-2.966-1.609-4.625-1.92c0.817-0.666,1.34-1.681,1.34-2.797V24.45c0-1.983-1.613-3.597-3.595-3.597&#xd;&#xa;&#x9;&#x9;c-1.983,0-3.596,1.614-3.596,3.597v3.021c-0.001,0.962,0.373,1.867,1.052,2.548c0.089,0.089,0.182,0.173,0.279,0.252&#xd;&#xa;&#x9;&#x9;c-1.653,0.312-3.221,0.963-4.612,1.916c0.11-1.047-0.237-2.131-1.031-2.927l-2.134-2.132c-0.679-0.683-1.583-1.06-2.548-1.06&#xd;&#xa;&#x9;&#x9;c-0.962,0-1.868,0.376-2.552,1.06c-1.396,1.402-1.395,3.68,0.003,5.079l2.146,2.146c0.681,0.676,1.583,1.048,2.54,1.048&#xd;&#xa;&#x9;&#x9;c0.128,0,0.255-0.007,0.382-0.02c-0.955,1.393-1.606,2.963-1.917,4.62c-0.667-0.819-1.683-1.342-2.796-1.342h-3.02&#xd;&#xa;&#x9;&#x9;c-1.984,0-3.599,1.614-3.599,3.597c0,1.981,1.615,3.594,3.599,3.594h3.023c1.115,0,2.131-0.524,2.797-1.343&#xd;&#xa;&#x9;&#x9;c0.32,1.665,0.987,3.24,1.936,4.625c-0.133-0.015-0.268-0.022-0.404-0.022c-0.962,0-1.866,0.374-2.545,1.053l-2.145,2.143&#xd;&#xa;&#x9;&#x9;c-1.391,1.398-1.39,3.679,0.006,5.086c0.678,0.675,1.582,1.047,2.544,1.047c0.963,0,1.866-0.373,2.544-1.05l2.139-2.139&#xd;&#xa;&#x9;&#x9;c0.799-0.802,1.141-1.892,1.025-2.94c0.533,0.367,1.097,0.692,1.69,0.972c0.199,0.097,0.423,0.148,0.649,0.148&#xd;&#xa;&#x9;&#x9;c0.177,0,0.35-0.03,0.516-0.091c0.164-0.061,0.313-0.146,0.442-0.254c-0.29,0.809-0.448,1.68-0.448,2.586&#xd;&#xa;&#x9;&#x9;c0,0.273,0.014,0.547,0.043,0.818c-2.838,1.538-4.586,4.465-4.586,7.723c0,4.842,3.941,8.781,8.786,8.781h22.462&#xd;&#xa;&#x9;&#x9;c4.845,0,8.786-3.939,8.786-8.781C73.154,60.847,71.248,57.792,68.266,56.324z M40.28,49.158c-0.105-0.487-0.445-0.889-0.908-1.075&#xd;&#xa;&#x9;&#x9;c-2.4-0.961-3.951-3.249-3.951-5.828c0-3.462,2.814-6.278,6.274-6.278c3.46,0,6.274,2.816,6.274,6.278&#xd;&#xa;&#x9;&#x9;c0,1.4-0.456,2.729-1.319,3.845c-0.305,0.394-0.394,0.913-0.238,1.388c0.083,0.252,0.23,0.472,0.42,0.644&#xd;&#xa;&#x9;&#x9;c-0.487-0.095-0.986-0.144-1.494-0.144c-1.954,0-3.739,0.734-5.096,1.941C40.323,49.683,40.337,49.417,40.28,49.158z&#xd;&#xa;&#x9;&#x9; M49.285,49.069c0.211,0,0.417-0.044,0.604-0.126c-0.087,0.118-0.171,0.237-0.253,0.358c-0.119-0.081-0.24-0.158-0.363-0.231&#xd;&#xa;&#x9;&#x9;H49.285z M53.24,46.027c0.065-0.109,0.117-0.227,0.153-0.35c0.113-0.383,0.207-0.771,0.282-1.161&#xd;&#xa;&#x9;&#x9;c0.149,0.184,0.317,0.356,0.505,0.512c0.188,0.155,0.409,0.262,0.644,0.313C54.276,45.525,53.746,45.754,53.24,46.027z"/>
  <path stroke-opacity="0.15" fill-opacity="0.15" d="M30.002,42.539c0.108,4.391,2.724,8.409,6.721,10.291c0.132,0.064,0.281,0.098,0.43,0.098&#xd;&#xa;&#x9;&#x9;c0.118,0,0.234-0.021,0.343-0.061c0.252-0.093,0.453-0.277,0.565-0.521c0.368-0.803,0.866-1.536,1.479-2.183&#xd;&#xa;&#x9;&#x9;c0.227-0.242,0.32-0.579,0.25-0.899c-0.07-0.325-0.297-0.593-0.605-0.716c-2.591-1.038-4.265-3.508-4.265-6.292&#xd;&#xa;&#x9;&#x9;c0-3.738,3.039-6.778,6.774-6.778s6.774,3.041,6.774,6.778c0,1.512-0.492,2.947-1.423,4.15c-0.203,0.263-0.263,0.608-0.159,0.925&#xd;&#xa;&#x9;&#x9;c0.105,0.316,0.358,0.559,0.677,0.648c0.453,0.128,0.882,0.292,1.278,0.487c0.139,0.068,0.287,0.103,0.442,0.103&#xd;&#xa;&#x9;&#x9;c0.296,0,0.573-0.129,0.762-0.353c0.696-0.82,1.519-1.533,2.441-2.117c0.206-0.129,0.357-0.33,0.426-0.563&#xd;&#xa;&#x9;&#x9;c0.291-0.988,0.45-2,0.475-3.014c0.07,0.82,0.466,1.582,1.11,2.121c0.181,0.149,0.408,0.232,0.641,0.232&#xd;&#xa;&#x9;&#x9;c0.086,0,0.172-0.011,0.258-0.033c0.887-0.236,1.8-0.356,2.713-0.356c0.858,0,1.71,0.104,2.528,0.309&#xd;&#xa;&#x9;&#x9;c0.08,0.021,0.162,0.031,0.245,0.031c0.241,0,0.475-0.087,0.658-0.247c0.673-0.587,1.059-1.433,1.059-2.319&#xd;&#xa;&#x9;&#x9;c0-1.71-1.391-3.101-3.1-3.101h-3.023c-1.619,0-2.952,1.246-3.089,2.828c-0.069-3.046-1.31-5.809-3.286-7.854&#xd;&#xa;&#x9;&#x9;c0.571,0.5,1.291,0.772,2.046,0.772c0.827,0,1.605-0.324,2.19-0.911l2.139-2.137c0.587-0.587,0.909-1.365,0.908-2.192&#xd;&#xa;&#x9;&#x9;c-0.001-0.827-0.323-1.603-0.906-2.184c-0.585-0.586-1.363-0.91-2.192-0.91c-0.828,0-1.606,0.323-2.188,0.908l-2.147,2.139&#xd;&#xa;&#x9;&#x9;c-1.152,1.158-1.198,3.011-0.136,4.228c-2.047-1.978-4.813-3.217-7.861-3.284c1.585-0.133,2.835-1.468,2.835-3.09V24.45&#xd;&#xa;&#x9;&#x9;c0-1.708-1.388-3.097-3.095-3.097c-1.707,0-3.096,1.389-3.096,3.097v3.022c-0.001,0.828,0.32,1.607,0.906,2.194&#xd;&#xa;&#x9;&#x9;c0.522,0.523,1.2,0.836,1.928,0.897c-3.049,0.067-5.815,1.308-7.863,3.286c1.069-1.213,1.023-3.073-0.136-4.236L31.3,27.48&#xd;&#xa;&#x9;&#x9;c-0.584-0.588-1.364-0.912-2.193-0.912c-0.829,0-1.609,0.324-2.197,0.912c-1.202,1.207-1.201,3.169,0.002,4.373l2.145,2.145&#xd;&#xa;&#x9;&#x9;c0.587,0.583,1.364,0.903,2.188,0.903c0.762,0,1.481-0.272,2.046-0.77c-1.976,2.043-3.216,4.802-3.288,7.846&#xd;&#xa;&#x9;&#x9;c-0.144-1.578-1.475-2.818-3.09-2.818h-3.02c-1.709,0-3.099,1.389-3.099,3.097c0,1.706,1.39,3.094,3.099,3.094h3.023&#xd;&#xa;&#x9;&#x9;C28.53,45.349,29.86,44.112,30.002,42.539z M33.435,50.517c-0.583-0.586-1.36-0.908-2.19-0.908c-0.828,0-1.606,0.321-2.192,0.906&#xd;&#xa;&#x9;&#x9;l-2.144,2.142c-1.198,1.204-1.197,3.168,0.004,4.379c0.584,0.581,1.363,0.901,2.192,0.901s1.607-0.32,2.191-0.903l2.139-2.139&#xd;&#xa;&#x9;&#x9;C34.636,53.689,34.637,51.726,33.435,50.517z M67.718,56.621c0.084-0.517,0.127-1.046,0.127-1.578c0-5.367-4.367-9.733-9.734-9.733&#xd;&#xa;&#x9;&#x9;c-3.441,0-6.582,1.789-8.338,4.708c-1.262-0.99-2.813-1.53-4.433-1.53c-3.957,0-7.176,3.221-7.176,7.18&#xd;&#xa;&#x9;&#x9;c0,0.369,0.028,0.738,0.083,1.102c-2.824,1.388-4.627,4.266-4.627,7.439c0,4.566,3.717,8.281,8.286,8.281h22.462&#xd;&#xa;&#x9;&#x9;c4.569,0,8.286-3.715,8.286-8.281C72.654,60.878,70.73,57.943,67.718,56.621z"/>
  <path stroke-opacity="0.15" fill-opacity="0.15" d="M47.362,47.174c0.052,0.158,0.179,0.28,0.339,0.325c0.482,0.136,0.94,0.311,1.363,0.52&#xd;&#xa;&#x9;&#x9;c0.07,0.035,0.146,0.051,0.221,0.051c0.144,0,0.284-0.062,0.381-0.176c0.729-0.859,1.59-1.605,2.557-2.217&#xd;&#xa;&#x9;&#x9;c0.103-0.064,0.178-0.165,0.212-0.281c0.304-1.031,0.457-2.087,0.457-3.14c0-6.173-5.022-11.195-11.196-11.195&#xd;&#xa;&#x9;&#x9;s-11.196,5.022-11.196,11.195c0,4.307,2.528,8.282,6.441,10.125c0.067,0.032,0.14,0.048,0.213,0.048c0.058,0,0.116-0.01,0.171-0.03&#xd;&#xa;&#x9;&#x9;c0.125-0.046,0.227-0.14,0.283-0.261c0.392-0.853,0.92-1.632,1.57-2.316c0.114-0.121,0.161-0.289,0.125-0.451&#xd;&#xa;&#x9;&#x9;c-0.035-0.162-0.148-0.296-0.302-0.357c-2.782-1.115-4.579-3.767-4.579-6.756c0-4.013,3.263-7.278,7.274-7.278&#xd;&#xa;&#x9;&#x9;c4.011,0,7.274,3.265,7.274,7.278c0,1.625-0.528,3.165-1.528,4.456C47.34,46.843,47.311,47.016,47.362,47.174z M41.695,30.074&#xd;&#xa;&#x9;&#x9;c1.431,0,2.595-1.167,2.595-2.601V24.45c0-1.432-1.164-2.597-2.595-2.597c-1.431,0-2.596,1.165-2.596,2.597v3.022&#xd;&#xa;&#x9;&#x9;c-0.001,0.695,0.269,1.349,0.76,1.84C40.35,29.803,41.002,30.074,41.695,30.074z M53.877,42.255c0,0.772,0.343,1.502,0.941,2.003&#xd;&#xa;&#x9;&#x9;c0.092,0.076,0.205,0.117,0.321,0.117c0.043,0,0.086-0.005,0.129-0.017c0.929-0.247,1.886-0.373,2.842-0.373&#xd;&#xa;&#x9;&#x9;c0.899,0,1.792,0.109,2.652,0.325c0.04,0.01,0.08,0.015,0.121,0.015c0.119,0,0.236-0.043,0.329-0.124&#xd;&#xa;&#x9;&#x9;c0.564-0.493,0.888-1.201,0.888-1.943c0-1.434-1.166-2.601-2.6-2.601h-3.023C55.044,39.658,53.877,40.823,53.877,42.255z&#xd;&#xa;&#x9;&#x9; M52.148,34.405c0.693,0,1.346-0.271,1.837-0.764l2.139-2.137c0.491-0.491,0.763-1.144,0.762-1.838&#xd;&#xa;&#x9;&#x9;c-0.001-0.693-0.271-1.344-0.761-1.831c-0.49-0.492-1.144-0.763-1.838-0.763s-1.347,0.271-1.835,0.762l-2.146,2.138&#xd;&#xa;&#x9;&#x9;c-1.008,1.012-1.008,2.658,0.004,3.672C50.809,34.134,51.462,34.405,52.148,34.405z M67.151,56.93&#xd;&#xa;&#x9;&#x9;c0.129-0.614,0.193-1.246,0.193-1.887c0-5.091-4.143-9.233-9.234-9.233c-3.477,0-6.618,1.934-8.199,4.986&#xd;&#xa;&#x9;&#x9;c-1.235-1.156-2.863-1.807-4.571-1.807c-3.681,0-6.676,2.997-6.676,6.68c0,0.47,0.048,0.938,0.144,1.394&#xd;&#xa;&#x9;&#x9;c-2.822,1.223-4.688,4.04-4.688,7.147c0,4.291,3.493,7.781,7.786,7.781h22.462c4.293,0,7.786-3.49,7.786-7.781&#xd;&#xa;&#x9;&#x9;C72.154,60.948,70.162,58.078,67.151,56.93z M31.245,50.108c-0.694,0-1.347,0.27-1.838,0.76l-2.143,2.141&#xd;&#xa;&#x9;&#x9;c-1.005,1.011-1.005,2.656,0.002,3.672c0.49,0.487,1.143,0.756,1.839,0.756c0.696,0,1.348-0.269,1.837-0.757l2.138-2.139&#xd;&#xa;&#x9;&#x9;c1.008-1.011,1.008-2.657,0-3.672C32.592,50.378,31.94,50.108,31.245,50.108z M29.408,33.642c0.493,0.489,1.145,0.758,1.836,0.758&#xd;&#xa;&#x9;&#x9;c0.694,0,1.347-0.27,1.837-0.759c1.013-1.011,1.013-2.659,0-3.674l-2.136-2.134c-0.49-0.493-1.144-0.765-1.839-0.765&#xd;&#xa;&#x9;&#x9;s-1.349,0.271-1.843,0.765c-1.007,1.012-1.007,2.657,0.001,3.667L29.408,33.642z M29.515,42.259c0-1.434-1.167-2.601-2.603-2.601&#xd;&#xa;&#x9;&#x9;h-3.02c-1.433,0-2.599,1.165-2.599,2.597c0,1.43,1.166,2.594,2.599,2.594h3.023C28.349,44.849,29.515,43.688,29.515,42.259z"/>
  <linearGradient id="SVGID_1_" y1="70.4912" x1="46.7241" y2="21.353" gradientUnits="userSpaceOnUse" x2="46.7241">
   <stop offset="0" style="stop-color:#DED9D2"/>
   <stop offset="0.3153" style="stop-color:#FAFCEF"/>
   <stop offset="1" style="stop-color:#FFFFFF"/>
  </linearGradient>
  <path fill="url(#SVGID_1_)" d="M66.562,56.253c0.186-0.702,0.283-1.443,0.283-2.21c0-4.822-3.908-8.733-8.734-8.733&#xd;&#xa;&#x9;&#x9;c-3.625,0-6.733,2.21-8.057,5.359c-1.134-1.331-2.823-2.18-4.714-2.18c-3.412,0-6.176,2.765-6.176,6.18&#xd;&#xa;&#x9;&#x9;c0,0.585,0.082,1.159,0.232,1.697c-2.788,1.02-4.776,3.697-4.776,6.844c0,4.02,3.259,7.281,7.286,7.281h22.462&#xd;&#xa;&#x9;&#x9;c4.027,0,7.286-3.262,7.286-7.281C71.654,59.947,69.518,57.187,66.562,56.253z M41.695,28.574c1.156,0,2.095-0.939,2.095-2.101&#xd;&#xa;&#x9;&#x9;V23.45c0-1.159-0.938-2.097-2.095-2.097c-1.157,0-2.096,0.938-2.096,2.097v3.023C39.598,27.634,40.538,28.574,41.695,28.574z&#xd;&#xa;&#x9;&#x9; M52.148,32.905c0.536,0,1.075-0.208,1.483-0.618l2.139-2.137c0.82-0.819,0.82-2.146,0-2.962c-0.818-0.821-2.148-0.821-2.966,0&#xd;&#xa;&#x9;&#x9;l-2.144,2.137c-0.813,0.816-0.813,2.147,0,2.962C51.077,32.697,51.612,32.905,52.148,32.905z M29.76,32.287&#xd;&#xa;&#x9;&#x9;c0.412,0.408,0.947,0.613,1.484,0.613s1.075-0.205,1.484-0.613c0.818-0.817,0.818-2.146,0-2.967l-2.137-2.135&#xd;&#xa;&#x9;&#x9;c-0.818-0.823-2.149-0.823-2.973,0c-0.813,0.817-0.813,2.146,0,2.96L29.76,32.287z M54.377,41.255c0,0.649,0.301,1.233,0.763,1.62&#xd;&#xa;&#x9;&#x9;c0.955-0.254,1.952-0.389,2.971-0.389c0.958,0,1.889,0.118,2.773,0.34c0.442-0.386,0.717-0.945,0.717-1.566&#xd;&#xa;&#x9;&#x9;c0-1.162-0.946-2.101-2.1-2.101h-3.023C55.32,39.158,54.377,40.098,54.377,41.255z M38.814,48.476&#xd;&#xa;&#x9;&#x9;c-2.871-1.15-4.893-3.943-4.893-7.22c0-4.295,3.482-7.778,7.774-7.778c4.294,0,7.774,3.483,7.774,7.778&#xd;&#xa;&#x9;&#x9;c0,1.794-0.613,3.445-1.632,4.762c0.494,0.14,0.986,0.324,1.448,0.552c0.769-0.906,1.674-1.686,2.67-2.315&#xd;&#xa;&#x9;&#x9;c0.28-0.953,0.437-1.96,0.437-2.999c0-5.901-4.8-10.695-10.696-10.695c-5.897,0-10.696,4.794-10.696,10.695&#xd;&#xa;&#x9;&#x9;c0,4.27,2.524,7.962,6.154,9.672C37.57,50.021,38.133,49.194,38.814,48.476z M29.76,50.222l-2.142,2.14&#xd;&#xa;&#x9;&#x9;c-0.813,0.818-0.813,2.145,0,2.965c0.411,0.409,0.952,0.61,1.487,0.61s1.074-0.201,1.484-0.61l2.138-2.139&#xd;&#xa;&#x9;&#x9;c0.816-0.817,0.816-2.145,0-2.966C31.911,49.403,30.58,49.403,29.76,50.222z M29.015,41.259c0-1.162-0.944-2.101-2.103-2.101h-3.02&#xd;&#xa;&#x9;&#x9;c-1.157,0-2.099,0.939-2.099,2.097c0,1.157,0.942,2.094,2.099,2.094h3.023C28.071,43.349,29.015,42.417,29.015,41.259z"/>
 </g>
 <g id="DO_NOT_EDIT_-_FOCAL_ZONE_GUIDES_ONLY"/>
</svg>
